<svg width="239" height="45" viewBox="0 0 239 45" fill="none" xmlns="http://www.w3.org/2000/svg">
<path d="M1.704 44.12C1.384 44.12 1.112 44.008 0.888 43.784C0.696 43.592 0.6 43.336 0.6 43.016V11.144C0.6 10.824 0.696 10.568 0.888 10.376C1.112 10.152 1.384 10.04 1.704 10.04H3.912C4.232 10.04 4.488 10.152 4.68 10.376C4.904 10.568 5.016 10.824 5.016 11.144V13.256C6.808 10.792 9.432 9.56 12.888 9.56C16.248 9.56 18.76 10.616 20.424 12.728C22.12 14.84 23.032 17.56 23.16 20.888C23.192 21.24 23.208 21.784 23.208 22.52C23.208 23.256 23.192 23.8 23.16 24.152C23.032 27.448 22.12 30.168 20.424 32.312C18.728 34.424 16.216 35.48 12.888 35.48C9.56 35.48 6.968 34.28 5.112 31.88V43.016C5.112 43.336 5.016 43.592 4.824 43.784C4.632 44.008 4.376 44.12 4.056 44.12H1.704ZM11.88 31.592C14.152 31.592 15.8 30.888 16.824 29.48C17.88 28.072 18.456 26.216 18.552 23.912C18.584 23.592 18.6 23.128 18.6 22.52C18.6 16.472 16.36 13.448 11.88 13.448C9.672 13.448 8.008 14.184 6.888 15.656C5.8 17.096 5.208 18.824 5.112 20.84L5.064 22.664L5.112 24.536C5.176 26.424 5.784 28.072 6.936 29.48C8.088 30.888 9.736 31.592 11.88 31.592ZM121.458 35.48C119.218 35.48 117.33 35.128 115.794 34.424C114.29 33.688 113.154 32.856 112.386 31.928C111.65 31 111.282 30.232 111.282 29.624C111.282 29.304 111.394 29.064 111.618 28.904C111.874 28.712 112.13 28.616 112.386 28.616H114.546C114.866 28.616 115.154 28.776 115.41 29.096C116.178 29.992 117.01 30.696 117.906 31.208C118.802 31.72 120.002 31.976 121.506 31.976C123.17 31.976 124.514 31.656 125.538 31.016C126.594 30.344 127.122 29.432 127.122 28.28C127.122 27.512 126.898 26.888 126.45 26.408C126.034 25.896 125.298 25.464 124.242 25.112C123.218 24.728 121.682 24.312 119.634 23.864C116.85 23.256 114.866 22.376 113.682 21.224C112.53 20.072 111.954 18.584 111.954 16.76C111.954 15.544 112.306 14.392 113.01 13.304C113.746 12.184 114.802 11.288 116.178 10.616C117.586 9.912 119.266 9.56 121.218 9.56C123.266 9.56 125.01 9.896 126.45 10.568C127.89 11.24 128.962 12.04 129.666 12.968C130.402 13.864 130.77 14.616 130.77 15.224C130.77 15.512 130.658 15.752 130.434 15.944C130.242 16.136 130.002 16.232 129.714 16.232H127.698C127.314 16.232 126.994 16.072 126.738 15.752C126.226 15.144 125.778 14.68 125.394 14.36C125.042 14.008 124.514 13.704 123.81 13.448C123.138 13.192 122.274 13.064 121.218 13.064C119.682 13.064 118.498 13.4 117.666 14.072C116.834 14.712 116.418 15.56 116.418 16.616C116.418 17.288 116.594 17.864 116.946 18.344C117.298 18.792 117.97 19.208 118.962 19.592C119.986 19.976 121.458 20.376 123.378 20.792C126.418 21.432 128.562 22.36 129.81 23.576C131.09 24.76 131.73 26.28 131.73 28.136C131.73 29.512 131.33 30.76 130.53 31.88C129.73 33 128.546 33.88 126.978 34.52C125.442 35.16 123.602 35.48 121.458 35.48ZM138.054 35C137.734 35 137.462 34.904 137.238 34.712C137.046 34.488 136.95 34.216 136.95 33.896V30.44C136.95 30.12 137.046 29.864 137.238 29.672C137.462 29.448 137.734 29.336 138.054 29.336H141.51C141.83 29.336 142.102 29.448 142.326 29.672C142.55 29.864 142.662 30.12 142.662 30.44V33.896C142.662 34.216 142.55 34.488 142.326 34.712C142.102 34.904 141.83 35 141.51 35H138.054ZM158.991 35.48C155.567 35.48 152.879 34.52 150.927 32.6C149.007 30.648 147.983 27.928 147.855 24.44L147.807 22.52L147.855 20.6C147.983 17.112 149.007 14.408 150.927 12.488C152.879 10.536 155.567 9.56 158.991 9.56C161.295 9.56 163.247 9.976 164.847 10.808C166.447 11.64 167.631 12.664 168.399 13.88C169.199 15.096 169.631 16.312 169.695 17.528C169.727 17.848 169.631 18.104 169.407 18.296C169.183 18.488 168.911 18.584 168.591 18.584H166.287C165.967 18.584 165.727 18.52 165.567 18.392C165.407 18.264 165.247 18.008 165.087 17.624C164.543 16.088 163.775 15 162.783 14.36C161.791 13.688 160.543 13.352 159.039 13.352C157.055 13.352 155.471 13.976 154.287 15.224C153.135 16.44 152.511 18.312 152.415 20.84L152.367 22.568L152.415 24.2C152.511 26.76 153.135 28.648 154.287 29.864C155.439 31.08 157.023 31.688 159.039 31.688C160.543 31.688 161.791 31.368 162.783 30.728C163.775 30.056 164.543 28.952 165.087 27.416C165.247 27.032 165.407 26.776 165.567 26.648C165.727 26.488 165.967 26.408 166.287 26.408H168.591C168.911 26.408 169.183 26.52 169.407 26.744C169.631 26.936 169.727 27.192 169.695 27.512C169.631 28.696 169.199 29.912 168.399 31.16C167.631 32.376 166.447 33.4 164.847 34.232C163.279 35.064 161.327 35.48 158.991 35.48ZM185.62 35.48C182.1 35.48 179.364 34.488 177.412 32.504C175.492 30.52 174.468 27.88 174.34 24.584L174.292 22.52L174.34 20.456C174.468 17.192 175.508 14.568 177.46 12.584C179.412 10.568 182.132 9.56 185.62 9.56C189.108 9.56 191.828 10.568 193.78 12.584C195.732 14.568 196.772 17.192 196.9 20.456C196.932 20.808 196.948 21.496 196.948 22.52C196.948 23.544 196.932 24.232 196.9 24.584C196.772 27.88 195.732 30.52 193.78 32.504C191.86 34.488 189.14 35.48 185.62 35.48ZM185.62 31.784C187.636 31.784 189.22 31.144 190.372 29.864C191.556 28.584 192.196 26.744 192.292 24.344C192.324 24.024 192.34 23.416 192.34 22.52C192.34 21.624 192.324 21.016 192.292 20.696C192.196 18.296 191.556 16.456 190.372 15.176C189.22 13.896 187.636 13.256 185.62 13.256C183.604 13.256 182.004 13.896 180.82 15.176C179.636 16.456 179.012 18.296 178.948 20.696L178.9 22.52L178.948 24.344C179.012 26.744 179.636 28.584 180.82 29.864C182.004 31.144 183.604 31.784 185.62 31.784ZM204.062 35C203.742 35 203.47 34.904 203.246 34.712C203.054 34.488 202.958 34.216 202.958 33.896V11.144C202.958 10.824 203.054 10.568 203.246 10.376C203.47 10.152 203.742 10.04 204.062 10.04H206.222C206.542 10.04 206.798 10.152 206.99 10.376C207.214 10.568 207.326 10.824 207.326 11.144V12.824C208.99 10.648 211.31 9.56 214.286 9.56C217.838 9.56 220.35 11.032 221.822 13.976C222.59 12.632 223.678 11.56 225.086 10.76C226.494 9.96 228.078 9.56 229.838 9.56C232.462 9.56 234.606 10.456 236.27 12.248C237.934 14.04 238.766 16.632 238.766 20.024V33.896C238.766 34.216 238.654 34.488 238.43 34.712C238.238 34.904 237.982 35 237.662 35H235.406C235.086 35 234.814 34.904 234.59 34.712C234.398 34.488 234.302 34.216 234.302 33.896V20.456C234.302 17.96 233.774 16.168 232.718 15.08C231.694 13.992 230.334 13.448 228.638 13.448C227.134 13.448 225.838 14.008 224.75 15.128C223.662 16.216 223.118 17.992 223.118 20.456V33.896C223.118 34.216 223.006 34.488 222.782 34.712C222.59 34.904 222.334 35 222.014 35H219.758C219.438 35 219.166 34.904 218.942 34.712C218.75 34.488 218.654 34.216 218.654 33.896V20.456C218.654 17.96 218.11 16.168 217.022 15.08C215.966 13.992 214.622 13.448 212.99 13.448C211.486 13.448 210.19 14.008 209.102 15.128C208.014 16.216 207.47 17.976 207.47 20.408V33.896C207.47 34.216 207.358 34.488 207.134 34.712C206.942 34.904 206.686 35 206.366 35H204.062Z" fill="#FFFAFA"/>
<path d="M39.3698 35.48C35.8498 35.48 33.1138 34.488 31.1618 32.504C29.2418 30.52 28.2178 27.88 28.0898 24.584L28.0418 22.52L28.0898 20.456C28.2178 17.192 29.2578 14.568 31.2098 12.584C33.1618 10.568 35.8818 9.56 39.3698 9.56C42.8578 9.56 45.5778 10.568 47.5298 12.584C49.4818 14.568 50.5218 17.192 50.6498 20.456C50.6818 20.808 50.6978 21.496 50.6978 22.52C50.6978 23.544 50.6818 24.232 50.6498 24.584C50.5218 27.88 49.4818 30.52 47.5298 32.504C45.6098 34.488 42.8898 35.48 39.3698 35.48ZM39.3698 31.784C41.3858 31.784 42.9698 31.144 44.1218 29.864C45.3058 28.584 45.9458 26.744 46.0418 24.344C46.0738 24.024 46.0898 23.416 46.0898 22.52C46.0898 21.624 46.0738 21.016 46.0418 20.696C45.9458 18.296 45.3058 16.456 44.1218 15.176C42.9698 13.896 41.3858 13.256 39.3698 13.256C37.3538 13.256 35.7538 13.896 34.5698 15.176C33.3858 16.456 32.7618 18.296 32.6978 20.696L32.6497 22.52L32.6978 24.344C32.7618 26.744 33.3858 28.584 34.5698 29.864C35.7538 31.144 37.3538 31.784 39.3698 31.784ZM66.9323 35.48C63.4123 35.48 60.6763 34.488 58.7243 32.504C56.8043 30.52 55.7803 27.88 55.6523 24.584L55.6043 22.52L55.6523 20.456C55.7803 17.192 56.8203 14.568 58.7723 12.584C60.7243 10.568 63.4443 9.56 66.9323 9.56C70.4203 9.56 73.1403 10.568 75.0923 12.584C77.0443 14.568 78.0843 17.192 78.2123 20.456C78.2443 20.808 78.2603 21.496 78.2603 22.52C78.2603 23.544 78.2443 24.232 78.2123 24.584C78.0843 27.88 77.0443 30.52 75.0923 32.504C73.1723 34.488 70.4523 35.48 66.9323 35.48ZM66.9323 31.784C68.9483 31.784 70.5323 31.144 71.6843 29.864C72.8683 28.584 73.5083 26.744 73.6043 24.344C73.6363 24.024 73.6523 23.416 73.6523 22.52C73.6523 21.624 73.6363 21.016 73.6043 20.696C73.5083 18.296 72.8683 16.456 71.6843 15.176C70.5323 13.896 68.9483 13.256 66.9323 13.256C64.9163 13.256 63.3163 13.896 62.1323 15.176C60.9483 16.456 60.3243 18.296 60.2603 20.696L60.2122 22.52L60.2603 24.344C60.3243 26.744 60.9483 28.584 62.1323 29.864C63.3163 31.144 64.9163 31.784 66.9323 31.784Z" fill="#FF0606"/>
<path d="M93.3907 35.48C90.0628 35.48 87.5508 34.392 85.8548 32.216C84.1588 30.04 83.2628 27.288 83.1668 23.96L83.1188 22.52L83.1668 21.08C83.2628 17.784 84.1588 15.048 85.8548 12.872C87.5508 10.664 90.0628 9.56 93.3907 9.56C96.6868 9.56 99.2788 10.728 101.167 13.064V2.024C101.167 1.704 101.263 1.448 101.455 1.256C101.679 1.032 101.951 0.919998 102.271 0.919998H104.575C104.895 0.919998 105.151 1.032 105.343 1.256C105.567 1.448 105.679 1.704 105.679 2.024V33.896C105.679 34.216 105.567 34.488 105.343 34.712C105.151 34.904 104.895 35 104.575 35H102.415C102.095 35 101.823 34.904 101.599 34.712C101.407 34.488 101.311 34.216 101.311 33.896V31.88C99.4548 34.28 96.8148 35.48 93.3907 35.48ZM94.3988 31.592C96.6068 31.592 98.2548 30.872 99.3428 29.432C100.463 27.96 101.071 26.216 101.167 24.2C101.199 23.848 101.215 23.24 101.215 22.376C101.215 21.48 101.199 20.856 101.167 20.504C101.103 18.616 100.495 16.968 99.3428 15.56C98.1908 14.152 96.5428 13.448 94.3988 13.448C92.1268 13.448 90.4628 14.152 89.4068 15.56C88.3828 16.968 87.8228 18.824 87.7268 21.128L87.6788 22.52C87.6788 28.568 89.9188 31.592 94.3988 31.592Z" fill="white"/>
</svg>
