<svg width="426" height="131" viewBox="0 0 426 131" fill="none" xmlns="http://www.w3.org/2000/svg">
<path d="M4.096 130.36C3.136 130.36 2.272 130.024 1.504 129.352C0.832 128.68 0.496001 127.816 0.496001 126.76V31.72C0.496001 30.664 0.832 29.8 1.504 29.128C2.272 28.456 3.136 28.12 4.096 28.12H20.368C21.424 28.12 22.288 28.456 22.96 29.128C23.632 29.8 23.968 30.664 23.968 31.72V36.904C29.152 30.088 36.592 26.68 46.288 26.68C55.696 26.68 63.04 29.608 68.32 35.464C73.6 41.32 76.48 49.576 76.96 60.232C77.056 61.48 77.104 63.256 77.104 65.56C77.104 67.864 77.056 69.64 76.96 70.888C76.576 81.256 73.696 89.464 68.32 95.512C62.944 101.464 55.6 104.44 46.288 104.44C36.88 104.44 29.872 101.224 25.264 94.792V126.76C25.264 127.816 24.928 128.68 24.256 129.352C23.584 130.024 22.72 130.36 21.664 130.36H4.096ZM38.512 85.144C43.024 85.144 46.24 83.8 48.16 81.112C50.176 78.424 51.328 74.728 51.616 70.024C51.808 68.104 51.904 66.616 51.904 65.56C51.904 64.504 51.808 63.016 51.616 61.096C51.328 56.392 50.176 52.696 48.16 50.008C46.24 47.32 43.024 45.976 38.512 45.976C34.096 45.976 30.832 47.368 28.72 50.152C26.704 52.84 25.552 56.344 25.264 60.664L25.12 65.992L25.264 71.464C25.456 75.4 26.656 78.664 28.864 81.256C31.072 83.848 34.288 85.144 38.512 85.144ZM295.338 104.44C285.93 104.44 278.586 101.512 273.306 95.656C268.122 89.704 265.29 81.352 264.81 70.6L264.666 65.56L264.81 60.376C265.194 50.008 268.026 41.8 273.306 35.752C278.682 29.704 286.026 26.68 295.338 26.68C304.074 26.68 311.13 29.512 316.506 35.176V4.35999C316.506 3.30399 316.842 2.44 317.514 1.768C318.186 1.096 319.05 0.759995 320.106 0.759995H337.674C338.73 0.759995 339.594 1.096 340.266 1.768C340.938 2.44 341.274 3.30399 341.274 4.35999V99.4C341.274 100.36 340.938 101.224 340.266 101.992C339.594 102.664 338.73 103 337.674 103H321.402C320.442 103 319.578 102.664 318.81 101.992C318.138 101.224 317.802 100.36 317.802 99.4V94.792C312.522 101.224 305.034 104.44 295.338 104.44ZM303.258 85.144C307.578 85.144 310.794 83.8 312.906 81.112C315.018 78.328 316.218 74.776 316.506 70.456C316.602 69.208 316.65 67.384 316.65 64.984C316.65 62.68 316.602 60.904 316.506 59.656C316.314 55.72 315.114 52.456 312.906 49.864C310.698 47.272 307.482 45.976 303.258 45.976C298.746 45.976 295.482 47.32 293.466 50.008C291.546 52.696 290.442 56.392 290.154 61.096C290.058 62.056 290.01 63.544 290.01 65.56C290.01 67.576 290.058 69.064 290.154 70.024C290.442 74.728 291.546 78.424 293.466 81.112C295.482 83.8 298.746 85.144 303.258 85.144ZM389.062 104.44C381.286 104.44 374.758 103.336 369.478 101.128C364.294 98.92 360.454 96.28 357.958 93.208C355.462 90.136 354.214 87.4 354.214 85C354.214 84.04 354.55 83.272 355.222 82.696C355.99 82.024 356.806 81.688 357.67 81.688H374.086C374.662 81.688 375.19 81.928 375.67 82.408C376.822 83.176 377.686 83.8 378.262 84.28C380.374 85.816 382.198 86.968 383.734 87.736C385.366 88.408 387.334 88.744 389.638 88.744C392.422 88.744 394.678 88.216 396.406 87.16C398.23 86.008 399.142 84.424 399.142 82.408C399.142 80.776 398.662 79.48 397.702 78.52C396.838 77.56 395.11 76.648 392.518 75.784C389.926 74.824 385.99 73.816 380.71 72.76C372.742 71.128 366.598 68.488 362.278 64.84C358.054 61.096 355.942 56.104 355.942 49.864C355.942 45.928 357.19 42.184 359.686 38.632C362.182 35.08 365.878 32.2 370.774 29.992C375.766 27.784 381.67 26.68 388.486 26.68C395.302 26.68 401.254 27.736 406.342 29.848C411.43 31.96 415.27 34.552 417.862 37.624C420.55 40.6 421.894 43.336 421.894 45.832C421.894 46.696 421.558 47.464 420.886 48.136C420.31 48.808 419.59 49.144 418.726 49.144H403.75C402.982 49.144 402.262 48.904 401.59 48.424C400.342 47.752 399.238 47.032 398.278 46.264C396.646 45.016 395.11 44.056 393.67 43.384C392.23 42.712 390.454 42.376 388.342 42.376C385.846 42.376 383.83 42.952 382.294 44.104C380.854 45.256 380.134 46.744 380.134 48.568C380.134 50.008 380.518 51.208 381.286 52.168C382.15 53.128 383.878 54.088 386.47 55.048C389.158 55.912 393.094 56.824 398.278 57.784C407.59 59.416 414.358 62.296 418.582 66.424C422.902 70.552 425.062 75.4 425.062 80.968C425.062 88.072 421.894 93.784 415.558 98.104C409.222 102.328 400.39 104.44 389.062 104.44Z" fill="white"/>
<path d="M126.764 104.44C114.86 104.44 105.692 101.608 99.2598 95.944C92.8278 90.28 89.3238 82.312 88.7478 72.04C88.6518 70.792 88.6038 68.632 88.6038 65.56C88.6038 62.488 88.6518 60.328 88.7478 59.08C89.3238 48.904 92.9238 40.984 99.5478 35.32C106.172 29.56 115.244 26.68 126.764 26.68C138.38 26.68 147.5 29.56 154.124 35.32C160.748 40.984 164.348 48.904 164.924 59.08C165.02 60.328 165.068 62.488 165.068 65.56C165.068 68.632 165.02 70.792 164.924 72.04C164.348 82.312 160.844 90.28 154.412 95.944C147.98 101.608 138.764 104.44 126.764 104.44ZM126.764 86.872C130.988 86.872 134.108 85.624 136.124 83.128C138.14 80.536 139.292 76.6 139.58 71.32C139.676 70.36 139.724 68.44 139.724 65.56C139.724 62.68 139.676 60.76 139.58 59.8C139.292 54.616 138.092 50.728 135.98 48.136C133.964 45.544 130.892 44.248 126.764 44.248C118.796 44.248 114.572 49.432 114.092 59.8L113.948 65.56L114.092 71.32C114.284 76.6 115.388 80.536 117.404 83.128C119.516 85.624 122.636 86.872 126.764 86.872ZM214.795 104.44C202.891 104.44 193.723 101.608 187.291 95.944C180.859 90.28 177.355 82.312 176.779 72.04C176.683 70.792 176.635 68.632 176.635 65.56C176.635 62.488 176.683 60.328 176.779 59.08C177.355 48.904 180.955 40.984 187.579 35.32C194.203 29.56 203.275 26.68 214.795 26.68C226.411 26.68 235.531 29.56 242.155 35.32C248.779 40.984 252.379 48.904 252.955 59.08C253.051 60.328 253.099 62.488 253.099 65.56C253.099 68.632 253.051 70.792 252.955 72.04C252.379 82.312 248.875 90.28 242.443 95.944C236.011 101.608 226.795 104.44 214.795 104.44ZM214.795 86.872C219.019 86.872 222.139 85.624 224.155 83.128C226.171 80.536 227.323 76.6 227.611 71.32C227.707 70.36 227.755 68.44 227.755 65.56C227.755 62.68 227.707 60.76 227.611 59.8C227.323 54.616 226.123 50.728 224.011 48.136C221.995 45.544 218.923 44.248 214.795 44.248C206.827 44.248 202.603 49.432 202.123 59.8L201.979 65.56L202.123 71.32C202.315 76.6 203.419 80.536 205.435 83.128C207.547 85.624 210.667 86.872 214.795 86.872Z" fill="#FF0707"/>
</svg>
